# xmcd CD database file
#
# Track frame offsets:
#	150
#	11415
#	24935
#	39442
#	53757
#	70425
#	87175
#	105585
#	116025
#	127877
#	141357
#	154997
#	177885
#	200225
#	214662
#	233940
#	252447
#	266895
#	282837
#	294477
#	313775
#	330285
#
# Disc length: 4563 seconds
#
# Revision: 1
# Processed by: cddbd v1.5.1PL0 Copyright (c) Steve Scherf et al.
# Submitted via: CDex 1.51
#
DISCID=4411d116
DTITLE=Blues Story - Piano et harmonica
DYEAR=1998
DGENRE=Blues
TTITLE0=Ray CHARLES: Confession blues
TTITLE1=MEMPHIS SLIM: Slim's blues
TTITLE2=MEADE LUX LEWIS: Honky tonk train blues
TTITLE3=LITTLE WALTER: Sad hours
TTITLE4=Otis SPANN and James COTTON: The blues never die
TTITLE5=SNOOKY PRIOR: When the saints go marchin' in
TTITLE6=Johnny NEEL: Ther blues ain't nothing
TTITLE7=Walter HORTON: Have a good time
TTITLE8=Sonny BOY WILLIAMSON: Bye bye bird
TTITLE9=Sonny BOY WILLIAMSON: Good morning little school girl
TTITLE10=Billy BOY ARNOLD: Move on down the road
TTITLE11=Dr. JOHN: So long
TTITLE12=Roosevelt SYKES: Miss Ida B
TTITLE13=Sonny TERRY: One monkey don't stop the show
TTITLE14=Norton BUFFALO and Roy RODGERS: Big jake
TTITLE15=Jean-Jacques MILTEAU: Miss Boogie
TTITLE16=Percy MAYFIELD: I don't want to be President
TTITLE17=Leroy CARR: Blues before sunrise
TTITLE18=Amos MILBURN: Trouble in mind
TTITLE19=PROFESSOR LONGHAIR: (They call me) Professor Longhair
TTITLE20=Kim WILSON: Tiger man
TTITLE21=Charlie MUSSELWHITE: Leaving blues
EXTD=YEAR: 1998
EXTT0=
EXTT1=
EXTT2=
EXTT3=
EXTT4=
EXTT5=
EXTT6=
EXTT7=
EXTT8=
EXTT9=
EXTT10=
EXTT11=
EXTT12=
EXTT13=
EXTT14=
EXTT15=
EXTT16=
EXTT17=
EXTT18=
EXTT19=
EXTT20=
EXTT21=
PLAYORDER=
